<?xml version="1.0" encoding="utf-8"?>
<!-- Generator: Adobe Illustrator 26.2.1, SVG Export Plug-In . SVG Version: 6.00 Build 0)  -->
<svg version="1.1" id="Layer_1" xmlns="http://www.w3.org/2000/svg" xmlns:xlink="http://www.w3.org/1999/xlink" x="0px" y="0px"
	 viewBox="0 0 6500 6500" style="enable-background:new 0 0 6500 6500;" xml:space="preserve">
<style type="text/css">
	.st0{fill:#FFFFFF;}
	.st1{fill:#1CAC83;}
</style>
<rect class="st0" width="6500" height="6500"/>
<path class="st1" d="M3844.16,2975.22c-34.85-18.94-72.07-29.95-111.65-33.04c-66.07-1.14-132.15-1.52-198.23-1.14
	c0.38-68.36,0-136.71-1.14-205.06c-1.88-7.5-3.02-15.1-3.42-22.78c-6.51-28.63-17.9-55.21-34.18-79.75
	c-10.85-17.86-23.38-34.57-37.59-50.13c-76.76-68.09-166-92.78-267.72-74.05c-79.61,17.75-140.37,61.42-182.28,131.01
	c-17.93,27.57-28.94,57.95-33.04,91.14c-0.38,70.26-1.52,140.13-3.42,209.62c-68.35,0-136.71,0-205.06,0
	c-85.7,8.48-152.15,48.73-199.37,120.76c-46.11,76.89-59.4,158.91-39.87,246.08c3.61,21.09,9.31,41.6,17.09,61.52
	c10.97,24.21,25.02,46.23,42.15,66.08c4.38,7.07,9.32,13.91,14.81,20.51c33.06,31.9,71.42,54.69,115.06,68.35
	c15.07,2.59,30.26,4.11,45.57,4.56c1.52,0,3.04,0,4.56,0c67.6,0,135.19,0,202.78,0c0.03,0.76,0.06,1.53,0.09,2.3
	c0.84,19.71,1.64,39.46,2.38,59.25c2.34,62.61,4.18,125.64,5.5,189.09c6.02,31.73,17.41,61.35,34.18,88.86
	c64.47,92.42,152.95,134.95,265.44,127.59c77.66-5.04,142.22-36.18,193.67-93.42c35.64-41.16,56.52-89.01,62.66-143.54
	c1.14-76.7,1.52-153.41,1.14-230.13c67.6,0,135.19,0,202.78,0c28.17-2.29,55.51-8.37,82.02-18.23
	c25.43-13.1,48.97-29.05,70.63-47.85c54.41-54.91,84.79-120.99,91.14-198.23C3987.6,3142.51,3942.03,3046.05,3844.16,2975.22z
	 M3142.39,2772.43c0.4-7.69,1.54-15.28,3.42-22.78c8.44-24.74,23.25-44.49,44.43-59.24c26.57-21.45,56.95-28.66,91.14-21.65
	c6.17,0.9,12.24,2.04,18.23,3.42c72.34,33.1,95.5,87.78,69.49,164.05c-26.27,49.81-67.66,72.21-124.18,67.22
	c-53.57-10.66-87.75-42.18-102.53-94.56C3139.97,2796.38,3139.97,2784.23,3142.39,2772.43z M3222.13,3091.42
	c-1.82-3.6-2.96-7.39-3.42-11.39c-2.2-34.18-4.48-68.36-6.84-102.53c-1.52-4.56-4.56-7.59-9.11-9.11c-1.52-13.67-1.52-27.34,0-41.01
	c36.51,14.36,73.35,15.12,110.51,2.28c0.14-1.24,0.9-2,2.28-2.28c3,14.02,3,27.69,0,41.01c-4.66,4.05-9.6,7.85-14.81,11.39
	c-0.38,24.34-1.52,48.64-3.42,72.91c-13.48,7.31-26.77,14.9-39.87,22.78c-0.76-26.58-1.52-53.16-2.28-79.75
	c-10.54-6.98-21.55-13.05-33.04-18.23C3222.99,3015.43,3222.99,3053.41,3222.13,3091.42z M3014.79,2991.17
	c-2.7-37.8,6.03-72.73,26.2-104.81c17.27-26.26,38.16-49.04,62.66-68.35c1.41-0.25,2.55-1.01,3.42-2.28
	c3.52,11.7,7.69,23.09,12.53,34.18c2.75,7.34,6.55,14.17,11.39,20.51c-56.5,50.35-62.2,105.8-17.09,166.33
	c24.48,24.12,49.93,46.9,76.33,68.35c-22.19,12.59-43.45,26.26-63.8,41.01c-2.82,2.08-5.86,2.46-9.11,1.14
	c-40.56-26.88-71.32-62.2-92.28-105.95C3019.45,3025.01,3016.03,3008.3,3014.79,2991.17z M3217.57,3777.24
	c4.57,7.66,7.99,16.01,10.25,25.06c3.91,32.17,8.46,64.07,13.67,95.7C3228.15,3858.82,3220.18,3818.57,3217.57,3777.24z
	 M3358.84,3632.56c-34.94,17.47-69.87,34.94-104.81,52.4c-18.16,11.95-22.34,27.51-12.53,46.71c15.95,14.43,31.9,28.86,47.85,43.29
	c19.9,23.8,24.46,50.38,13.67,79.75c-8.25,17.27-19.26,32.46-33.04,45.57c-1.68,0.3-3.2-0.08-4.56-1.14
	c10.41-25.99,13.83-52.95,10.25-80.89c-10.13-21.52-25.7-37.85-46.71-48.99c-46.83-44.01-44.55-85.78,6.84-125.32
	c29.65-17.87,60.03-34.57,91.14-50.13c38.57-21.75,45.79-50.99,21.65-87.72c-6.87-7.25-14.09-14.09-21.65-20.51
	c11.25-7.71,23.02-14.55,35.32-20.51c6.81,4.91,13.26,10.22,19.37,15.95c9.65,12.42,17.62,26.09,23.92,41.01
	C3416.61,3570.19,3401.04,3607.02,3358.84,3632.56z M3290.49,3705.47c-0.14,10.47-1.66,20.72-4.56,30.76
	c-9.18-7.66-17.53-16.01-25.06-25.06c7.74-7.75,16.09-14.59,25.06-20.51C3288.89,3694.59,3290.41,3699.52,3290.49,3705.47z
	 M3219.85,3563.06c0.21-8.2,1.72-15.79,4.56-22.78c3.6,25.35,5.12,51.18,4.56,77.47c-2.28,0-4.56,0-6.84,0
	C3221.98,3599.5,3221.22,3581.27,3219.85,3563.06z M3291.63,3581.29c-10.71,6.3-21.72,11.62-33.04,15.95
	c-0.38-26.59,0-53.18,1.14-79.75c9.48-6.83,19.73-12.14,30.76-15.95c0.14-1.24,0.9-2,2.28-2.28c2.99,11.74,2.99,23.13,0,34.18
	C3293.14,3549.41,3292.76,3565.36,3291.63,3581.29z M3469.35,3346.61c-18.58,32.63-44.78,56.94-78.61,72.91
	c-56.01,25.73-111.45,52.69-166.33,80.89c-22.11,13.74-42.23,30.07-60.38,48.99c-11.83,21.64-10.31,42.14,4.56,61.52
	c11.32,9.63,22.33,19.5,33.04,29.62c-8.45,8.82-16.43,17.94-23.92,27.34c-24.83-11.29-45.33-28-61.52-50.13
	c-22.45-42.72-18.65-82.97,11.39-120.76c15.66-14.9,31.99-28.95,48.99-42.15c56.31-35,114.04-67.65,173.16-97.97
	c16.87-10.03,31.68-22.56,44.43-37.59c11.88-18,15.67-37.75,11.39-59.24c-10.16-24.08-25.35-44.59-45.57-61.52
	c-1.41-2.16-1.03-4.06,1.14-5.7c12.15-7.59,24.3-15.19,36.46-22.78c2.28-1.52,4.56-1.52,6.84,0c24.39,20.95,44.9,44.87,61.52,71.77
	C3479.76,3276.19,3480.9,3311.13,3469.35,3346.61z M3226.69,3371.67c-0.76,6.84-1.52,13.67-2.28,20.51
	c-1.34-0.48-2.47-1.24-3.42-2.28c-3.5-41.9-4.64-83.67-3.42-125.32c4.06,9.63,5.96,20.26,5.7,31.9
	C3224.22,3321.56,3225.36,3346.62,3226.69,3371.67z M3258.59,3241.8c12.11-6.54,24.26-12.62,36.46-18.23
	c3.02,9.37,4.54,19.63,4.56,30.76c-1.57,33.04-3.08,66.08-4.56,99.11c-12.45,4.52-24.22,10.59-35.32,18.23
	C3256.37,3328.39,3255.99,3285.1,3258.59,3241.8z M3489.85,3039.02c-18.19,35.65-43.63,64.89-76.33,87.72
	c-59.96,34.16-121.48,65.3-184.56,93.42c-31.55,16.15-61.17,35.13-88.86,56.96c-17.38,15.42-29.92,34.03-37.59,55.82
	c-4.96,28.02,3.01,51.56,23.92,70.63c10.21,9.28,20.85,18.01,31.9,26.2c-14.12,11.46-27.03,23.99-38.73,37.59
	c-35.95-20.38-62.91-49.24-80.89-86.58c-21.85-71.36-3.24-129.83,55.82-175.44c23.06-18,47.36-34.33,72.91-48.99
	c63.8-32.66,127.59-65.32,191.39-97.97c29.08-14.73,51.49-36.38,67.21-64.94c10.53-26.64,10.53-53.23,0-79.75
	c-9.62-16.61-20.64-32.18-33.04-46.71c9.29-15.94,15.74-33.03,19.37-51.27C3491.72,2871.45,3517.54,2945.88,3489.85,3039.02z"/>
</svg>
